<?xml version="1.0" encoding="UTF-8"?>
<svg version="1.1" xmlns="http://www.w3.org/2000/svg" width="500" height="543">
<path d="M0 0 C76.56 0 153.12 0 232 0 C232 12.54 232 25.08 232 38 C168.97 38 105.94 38 41 38 C41 91.79 41 145.58 41 201 C72.68 201 104.36 201 137 201 C137 166.35 137 131.7 137 96 C211.91 96 286.82 96 364 96 C364 110.19 364 124.38 364 139 C302.29 139 240.58 139 177 139 C177 159.46 177 179.92 177 201 C194.49 201 211.98 201 230 201 C230 215.19 230 229.38 230 244 C212.51 244 195.02 244 177 244 C177 263.14 177 282.28 177 302 C238.38 302 299.76 302 363 302 C363 316.19 363 330.38 363 345 C288.09 345 213.18 345 136 345 C136 320.08282409 136.00687788 295.2159281 136.5 270.3125 C136.665 261.629375 136.83 252.94625 137 244 C105.32 244 73.64 244 41 244 C40.95875 258.52 40.9175 273.04 40.875 288 C40.83616699 292.57359375 40.79733398 297.1471875 40.75732422 301.859375 C40.77049643 305.98270354 40.77049643 305.98270354 40.79690552 310.10595703 C40.80228332 311.93314337 40.78809221 313.76045447 40.75808716 315.58740234 C40.22406845 326.36040423 40.22406845 326.36040423 44.19319153 335.93605042 C46.71050646 337.9680577 49.14581978 339.49470286 52 341 C53.09734812 341.85196451 54.17383016 342.73239423 55.21484375 343.65234375 C59.98924937 347.65955651 64.78041132 351.64036474 69.625 355.5625 C74.04019641 359.16170739 78.2688515 362.92424593 82.48046875 366.7578125 C85.92531948 369.82346261 89.49850648 372.71599819 93.08203125 375.6171875 C96.25417289 378.20755752 99.38046751 380.84678938 102.5 383.5 C106.44638883 386.85460405 110.41642493 390.17222172 114.4375 393.4375 C119.30129025 397.39508188 124.05881231 401.46542446 128.80834961 405.55834961 C132.33298919 408.58945289 135.89039882 411.56985316 139.5 414.5 C144.34596789 418.4337857 149.08098528 422.48447759 153.80859375 426.55859375 C157.33317903 429.58958284 160.89048832 432.56992581 164.5 435.5 C168.7279248 438.93208013 172.8752789 442.44551171 177 446 C182.01591689 450.32172863 187.09175299 454.55479196 192.23046875 458.73046875 C198.11375266 463.55160832 203.89065215 468.50138832 209.68212891 473.43212891 C210.80470048 474.38776564 211.92774916 475.34284221 213.05126953 476.29736328 C217.34393109 479.94439624 217.34393109 479.94439624 219.18086243 481.5431366 C221.05715333 483.09727957 221.05715333 483.09727957 223.48161316 484.59614563 C230.47013845 489.36196322 230.47013845 489.36196322 231.88072205 493.72270203 C232.15502205 496.91144577 232.12709211 499.95932411 231.9765625 503.15625 C231.96241302 504.29912476 231.94826355 505.44199951 231.9336853 506.61950684 C231.87796098 510.24906914 231.7525656 513.87232325 231.625 517.5 C231.57481081 519.96866047 231.52918846 522.43741828 231.48828125 524.90625 C231.37837371 530.93963104 231.21132716 536.96936497 231 543 C228.15112158 541.62487699 226.00918719 540.28113185 223.71484375 538.09375 C222.80351685 537.23257568 222.80351685 537.23257568 221.8737793 536.35400391 C220.91532104 535.43627197 220.91532104 535.43627197 219.9375 534.5 C218.58897995 533.22609839 217.24001868 531.95266367 215.890625 530.6796875 C215.22869141 530.05288086 214.56675781 529.42607422 213.88476562 528.78027344 C207.37320959 522.62972077 200.74683987 516.70938669 193.703125 511.171875 C190.55305358 508.64089276 187.49442598 506.01704213 184.4375 503.375 C179.18592782 498.84017593 173.86785232 494.39649786 168.5 490 C162.56363908 485.13690212 156.69920116 480.20250831 150.88891602 475.18969727 C146.57540922 471.47450958 142.18777235 467.85975645 137.76953125 464.26953125 C131.89200589 459.45311061 126.12388086 454.505057 120.33398438 449.58398438 C114.77931966 444.8648039 109.21940075 440.15924951 103.5625 435.5625 C99.31607054 432.10725391 95.14715512 428.57289051 91 425 C84.14973218 419.10139061 77.22935267 413.29582126 70.09765625 407.73828125 C69.17855469 407.02027344 68.25945312 406.30226563 67.3125 405.5625 C66.48363281 404.92441406 65.65476562 404.28632813 64.80078125 403.62890625 C64.20652344 403.09136719 63.61226562 402.55382812 63 402 C63 401.34 63 400.68 63 400 C62.44183594 399.75121094 61.88367187 399.50242187 61.30859375 399.24609375 C58.5995577 397.78385602 56.4303568 396.03155987 54.0625 394.0625 C53.10472656 393.2684375 52.14695313 392.474375 51.16015625 391.65625 C47.1986147 388.33552761 43.25480403 384.99326034 39.32836914 381.63110352 C36.94834903 379.60155195 34.6068142 377.73787613 32 376 C32 375.34 32 374.68 32 374 C31.45859375 373.94070313 30.9171875 373.88140625 30.359375 373.8203125 C26.97174966 372.64249574 24.784447 370.31607052 22.25 367.875 C21.18160522 366.87043859 20.1125938 365.86653261 19.04296875 364.86328125 C18.52395996 364.3729541 18.00495117 363.88262695 17.47021484 363.37744141 C13.46839238 359.62814179 9.34263737 356.03494964 5 352.6875 C4.34 352.130625 3.68 351.57375 3 351 C3 350.34 3 349.68 3 349 C2.01 348.67 1.02 348.34 0 348 C0 233.16 0 118.32 0 0 Z " fill="#213365" transform="translate(0,0)"/>
<path d="M0 0 C74.91 0 149.82 0 227 0 C227.52430754 87.85064079 227.52430754 87.85064079 227.63476562 124.5390625 C227.66021732 132.93652677 227.6864834 141.3339879 227.71411133 149.73144531 C227.71754006 150.78390544 227.7209688 151.83636557 227.72450143 152.92071843 C227.78101707 169.90400659 227.88349154 186.88672158 228.00298635 203.86967006 C228.12462918 221.30352357 228.19677925 238.73707738 228.22315043 256.17133784 C228.24097376 266.92646377 228.29722659 277.67997028 228.40291407 288.43459758 C228.47172329 295.81316092 228.49238164 303.19088922 228.47551791 310.56974998 C228.46720357 314.82540653 228.47978563 319.0782376 228.54967117 323.33338928 C228.9906346 351.55599564 228.9906346 351.55599564 222.49025983 358.36361575 C219.80524836 360.61956232 217.06450346 362.28297504 214 364 C212.31048785 365.32555416 210.63852757 366.67441767 209 368.0625 C208.20207031 368.68640625 207.40414062 369.3103125 206.58203125 369.953125 C203.56450885 372.3452305 200.62161213 374.8195914 197.6875 377.3125 C197.14109863 377.77648193 196.59469727 378.24046387 196.03173828 378.71850586 C194.35375987 380.14481206 192.676849 381.57236629 191 383 C184.89234405 388.1935607 178.784841 393.38127854 172.5625 398.4375 C168.31607618 401.89274151 164.14703706 405.42697834 160 409 C154.98403597 413.32167542 149.90824892 417.55479041 144.76953125 421.73046875 C141.69579214 424.2492874 138.65619479 426.80528952 135.625 429.375 C135.08311035 429.83438965 134.5412207 430.2937793 133.98291016 430.76708984 C131.75969435 432.6536341 129.53800264 434.54195596 127.31787109 436.43212891 C116.5669441 445.58431219 116.5669441 445.58431219 111.0625 449.9375 C106.37990024 453.64866901 101.85260672 457.523551 97.328125 461.42407227 C92.47615732 465.60413756 87.57000294 469.71324856 82.63671875 473.796875 C80.3508676 475.70683063 78.10822157 477.65423952 75.875 479.625 C73 482 73 482 71 482 C71 482.66 71 483.32 71 484 C67.53846154 487 67.53846154 487 65 487 C65 487.66 65 488.32 65 489 C63.32464541 490.51984883 61.58294378 491.96706453 59.8125 493.375 C58.36810547 494.53128906 58.36810547 494.53128906 56.89453125 495.7109375 C55.93933594 496.46632813 54.98414063 497.22171875 54 498 C53.09636719 498.75539063 52.19273437 499.51078125 51.26171875 500.2890625 C49 502 49 502 47 502 C46.67 502.99 46.34 503.98 46 505 C43.8828125 506.9453125 43.8828125 506.9453125 41.125 509.125 C39.62259766 510.32962891 39.62259766 510.32962891 38.08984375 511.55859375 C36.16904874 513.07628892 34.24513062 514.59005073 32.31640625 516.09765625 C26.13538831 521.01124406 20.53215165 526.29880887 15.03393555 531.9519043 C7.21994508 539.95956416 7.21994508 539.95956416 3 543 C2.34 543 1.68 543 1 543 C0.79693139 535.56232424 0.65696753 528.12536434 0.56054688 520.68554688 C0.52034866 518.15565275 0.46577929 515.62594409 0.39648438 513.09667969 C0.29927956 509.45721705 0.25403486 505.82021257 0.21875 502.1796875 C0.17745972 501.05134491 0.13616943 499.92300232 0.09362793 498.76046753 C0.08923773 491.0542824 0.08923773 491.0542824 2.71777344 488.01153564 C4.74579241 486.48673345 6.7951015 485.24896233 9 484 C10.12604521 483.08889492 11.23426611 482.1547135 12.3125 481.1875 C15.18099857 478.68725463 18.10759339 476.27262159 21.0625 473.875 C25.50314028 470.26009862 29.85611092 466.55729856 34.1875 462.8125 C38.42251481 459.15140508 42.66190467 455.59224685 47.25390625 452.37890625 C49.17494556 450.91698387 49.17494556 450.91698387 51.36328125 448.63671875 C54.00309485 445.99690515 56.74038042 443.61808991 59.625 441.25 C60.56601562 440.47140625 61.50703125 439.6928125 62.4765625 438.890625 C65 437 65 437 68 436 C68 435.34 68 434.68 68 434 C71.46153846 431 71.46153846 431 74 431 C74.33 430.01 74.66 429.02 75 428 C76.65848177 426.98648336 78.32665961 425.98879205 80 425 C81.67228775 423.33897344 83.33818532 421.67150457 85 420 C86.85298865 418.39096224 88.7282008 416.80715196 90.625 415.25 C91.56601562 414.47140625 92.50703125 413.6928125 93.4765625 412.890625 C96 411 96 411 99 410 C99 409.34 99 408.68 99 408 C100.66666667 407 102.33333333 406 104 405 C104.886875 404.113125 105.77375 403.22625 106.6875 402.3125 C107.450625 401.549375 108.21375 400.78625 109 400 C109.66 400 110.32 400 111 400 C111.33 399.01 111.66 398.02 112 397 C113.8984375 395.2734375 113.8984375 395.2734375 116.375 393.375 C121.26201803 389.58650476 126.01755406 385.66705681 130.75 381.6875 C133 380 133 380 135 380 C135.33 379.01 135.66 378.02 136 377 C139.44444444 374 139.44444444 374 142 374 C142.33 373.01 142.66 372.02 143 371 C145.109375 369.09765625 145.109375 369.09765625 147.75 367.0625 C148.61109375 366.39347656 149.4721875 365.72445313 150.359375 365.03515625 C151.23078125 364.36355469 152.1021875 363.69195312 153 363 C153.89203125 362.25621094 154.7840625 361.51242187 155.703125 360.74609375 C158 359 158 359 160 359 C160.33 358.01 160.66 357.02 161 356 C162.66666667 355.33333333 164.33333333 354.66666667 166 354 C166.33 353.01 166.66 352.02 167 351 C168.65268771 349.49885632 170.37206686 348.07026333 172.125 346.6875 C175.50228559 343.99972525 178.83498154 341.30337263 182.0625 338.4375 C185 336 185 336 187 336 C187 305.64 187 275.28 187 244 C125.29 244 63.58 244 0 244 C0 229.81 0 215.62 0 201 C61.71 201 123.42 201 187 201 C187 147.21 187 93.42 187 38 C125.29 38 63.58 38 0 38 C0 25.46 0 12.92 0 0 Z " fill="#213365" transform="translate(273,0)"/>
</svg>
